<svg xmlns="http://www.w3.org/2000/svg" viewBox="0 0 1000 600" role="img" aria-labelledby="title desc"><title id="title">DS18B20 temperature input</title><desc id="desc">Use externally powered three-wire mode with an external 4.7 kΩ data pull-up.</desc>
<style>text{font-family:Arial,sans-serif;fill:#eef4f8;font-size:19px}.small{font-size:16px;fill:#bac9d6}.heading{font-size:26px;font-weight:bold}.net{fill:none;stroke-width:3;stroke-linejoin:round}.heavy{stroke-width:5}</style>
<rect width="1000" height="600" rx="18" fill="#101922"/>
<text x="30" y="42" class="heading" text-anchor="start">DS18B20 temperature input</text>
<text x="30" y="76" class="small" text-anchor="start">Use externally powered three-wire mode with an external 4.7 kΩ data pull-up.</text>
<rect x="35" y="115" width="280" height="350" rx="10" fill="#1c2b38" stroke="#566a7c" stroke-width="2"/>
<text x="175.0" y="147" class="" text-anchor="middle">ESP32 ECU</text>
<rect x="685" y="115" width="280" height="350" rx="10" fill="#1c2b38" stroke="#566a7c" stroke-width="2"/>
<text x="825.0" y="147" class="" text-anchor="middle">DS18B20</text>
<text x="295" y="180" class="" text-anchor="end">3.3 V</text>
<text x="705" y="180" class="" text-anchor="start">VDD</text>
<polyline points="315,190 685,190" class="net" stroke="#ff9276"/>
<text x="295" y="300" class="" text-anchor="end">OneWire GPIO</text>
<text x="705" y="300" class="" text-anchor="start">DQ / data</text>
<polyline points="315,310 685,310" class="net" stroke="#74dcb7"/>
<text x="295" y="400" class="" text-anchor="end">GND</text>
<text x="705" y="400" class="" text-anchor="start">GND</text>
<polyline points="315,410 685,410" class="net" stroke="#b6c4d2"/>
<polyline points="490,190 490,228" class="net" stroke="#ff9276"/>
<rect x="481" y="228" width="18" height="42" fill="#101922" stroke="#b6c4d2" stroke-width="2"/>
<text x="508" y="256" class="small" text-anchor="start">4.7 kΩ</text>
<polyline points="490,270 490,310" class="net" stroke="#74dcb7"/>
<circle cx="490" cy="190" r="5" fill="#ff9276"/>
<circle cx="490" cy="310" r="5" fill="#74dcb7"/>
<text x="30" y="558" class="small" text-anchor="start">Signal / command</text>
<polyline points="190,552 242,552" class="net" stroke="#74dcb7"/>
<text x="270" y="558" class="small" text-anchor="start">Supply / load power</text>
<polyline points="447,552 499,552" class="net" stroke="#ff9276"/>
<text x="528" y="558" class="small" text-anchor="start">Ground / return</text>
<polyline points="695,552 747,552" class="net" stroke="#b6c4d2"/>
<text x="30" y="584" class="small" text-anchor="start">Connections are also listed in the guide. Confirm the exact module pinout before wiring.</text></svg>
